# xmcd
#
# Track frame offsets:
#	150
#	10893
#	22326
#	37383
#	53924
#	64781
#	75114
#	91750
#	104095
#	117860
#	129958
#
# Disc length: 1884 seconds
#
# Revision: 1
# Processed by: cddbd v1.5.2PL0 Copyright (c) Steve Scherf et al.
# Submitted via: audiograbber 1.83.01
#
DISCID=8c075a0b
DTITLE=Journey Home - God's Great Reunion Day
DYEAR=1900
DGENRE=
TTITLE0=Going Fishing
TTITLE1=Set Your Affections
TTITLE2=I'll Not Fear The Crossing
TTITLE3=God's Great Reunmion Day
TTITLE4=Mercy
TTITLE5=Look To Him
TTITLE6=I Thank Him
TTITLE7=It's By Grace
TTITLE8=Lead Me, Guide Me
TTITLE9=Nearing The Shore
TTITLE10=Lord You've Been Good To Me
EXTD=
EXTT0=
EXTT1=
EXTT2=
EXTT3=
EXTT4=
EXTT5=
EXTT6=
EXTT7=
EXTT8=
EXTT9=
EXTT10=
PLAYORDER=
